<?xml version="1.0" encoding="UTF-8" standalone="no"?>
<svg
   version="1.1"
   viewBox="-606.8578 477.63045 208.25831 70.344002"
   width="208.25832"
   height="70.344002"
   id="svg7"
   sodipodi:docname="AalfonsLogo3.svg"
   inkscape:version="1.3 (0e150ed, 2023-07-21)"
   xmlns:inkscape="http://www.inkscape.org/namespaces/inkscape"
   xmlns:sodipodi="http://sodipodi.sourceforge.net/DTD/sodipodi-0.dtd"
   xmlns="http://www.w3.org/2000/svg"
   xmlns:svg="http://www.w3.org/2000/svg">
  <sodipodi:namedview
     id="namedview7"
     pagecolor="#ffffff"
     bordercolor="#000000"
     borderopacity="0.25"
     inkscape:showpageshadow="2"
     inkscape:pageopacity="0.0"
     inkscape:pagecheckerboard="0"
     inkscape:deskcolor="#d1d1d1"
     inkscape:zoom="2.36"
     inkscape:cx="104.23729"
     inkscape:cy="44.491525"
     inkscape:window-width="1344"
     inkscape:window-height="449"
     inkscape:window-x="0"
     inkscape:window-y="39"
     inkscape:window-maximized="0"
     inkscape:current-layer="Canvas_1_Layer_1" />
  <defs
     id="defs1" />
  <g
     id="Canvas_1"
     stroke-dasharray="none"
     stroke-opacity="1"
     fill="none"
     fill-opacity="1"
     stroke="none"
     transform="translate(-5.936,-5.64)">
    <title
       id="title1">Canvas 1</title>
    <g
       id="Canvas_1_Layer_1">
      <title
         id="title2">Layer 1</title>
      <path
         style="font-size:72px;font-family:Aalfons;fill:#62ae8b"
         d="m -565.4978,501.70245 z m 19.44,36.072 h -0.36 q -2.736,2.232 -4.464,3.384 -1.728,1.224 -4.32,2.088 -2.52,0.864 -5.544,0.864 -5.4,0 -8.496,-2.88 -3.024,-2.808 -3.024,-7.344 0,-6.12 5.832,-10.08 2.88,-1.944 7.56,-3.528 2.592,-0.864 6.984,-2.016 4.392,-1.152 5.184,-1.368 v -4.104 q 0,-5.832 -2.16,-8.424 -2.088,-2.592 -6.624,-2.592 -3.96,0 -5.256,1.584 -1.224,1.584 -1.224,5.904 0,4.176 -4.248,4.176 -1.656,0 -2.88,-1.08 -1.224,-1.152 -1.224,-3.312 0,-1.8 1.224,-3.672 1.224,-1.872 3.312,-3.312 1.512,-0.504 4.032,-1.44 2.52,-0.936 4.032,-1.44 1.8,-0.216 4.464,-0.216 3.96,0 6.552,0.864 2.592,0.792 4.032,2.664 1.44,1.8 2.016,4.32 0.576,2.52 0.576,6.264 v 10.584 q 0,1.584 -0.072,3.744 0,2.088 0,3.24 0,1.152 0,2.664 0,1.512 0.072,2.376 0.144,0.792 0.36,1.8 0.216,0.936 0.576,1.44 0.36,0.504 0.864,1.008 0.504,0.576 1.224,0.792 0.72,0.288 1.728,0.432 l -0.144,0.144 v 2.736 l -6.192,-0.072 q -0.864,0 -1.512,-0.144 -0.648,-0.072 -1.08,-0.432 -0.432,-0.288 -0.72,-0.576 -0.288,-0.216 -0.432,-0.936 -0.144,-0.648 -0.216,-1.08 -0.072,-0.36 -0.216,-1.44 -0.144,-1.008 -0.216,-1.584 z m -0.648,-2.736 v -15.12 q -3.168,0.72 -5.256,1.368 -2.088,0.576 -4.536,1.584 -2.376,1.008 -3.816,2.16 -1.44,1.152 -2.448,2.88 -0.936,1.656 -0.936,3.744 0,3.384 1.872,5.4 1.944,2.016 5.112,2.016 4.824,0 10.008,-4.032 z m 11.232,9 z m -30.312,-41.976 -3.096,-7.488 h -0.288 l -12.384,29.592 h 16.992 l -3.24,3.384 q -8.424,-0.072 -15.192,0.072 l -3.024,6.048 q -1.008,2.664 -1.008,4.464 0,1.872 1.44,2.52 1.44,0.648 5.04,0.648 v 2.736 h -20.376 v -2.736 q 1.728,0 2.808,-0.288 1.152,-0.288 2.16,-0.936 1.008,-0.576 2.016,-2.088 1.008,-1.44 1.944,-3.312 1.008,-1.944 2.52,-5.328 l 20.592,-46.08 h 3.96 l 7.2,15.912 z"
         id="path18" />
      <path
         style="font-size:72px;font-family:Aalfons;fill:#000000"
         d="m -516.60982,535.54245 v 2.088 h -16.55999 v -2.088 q 3.384,0 4.17599,-0.936 0.86401,-1.008 0.86401,-4.248 v -36.144 q 0,-2.016 -0.72001,-2.52 -0.71999,-0.576 -2.30399,-0.576 l -2.304,0.144 v -1.944 l 9.504,-2.52 h 1.8 v 43.56 q 0,3.312 0.864,4.248 0.936,0.936 4.67999,0.936 z"
         id="path17" />
      <path
         style="font-size:72px;font-family:Aalfons;fill:#000000"
         d="m -476.27133,502.71045 q 7.416,0 11.664,4.608 4.32,4.608 4.32,12.6 0,8.856 -4.392,13.68 -4.392,4.752 -11.592,4.752 -7.632,0 -11.88,-4.68 -4.248,-4.752 -4.248,-13.464 0,-7.848 4.392,-12.672 4.464,-4.824 11.736,-4.824 z m -0.288,2.736 q -4.248,0 -6.696,3.528 -2.448,3.528 -2.448,10.296 0,16.344 9.72,16.2 4.68,0 6.84,-3.384 2.232,-3.384 2.232,-11.808 0,-6.84 -2.52,-10.8 -2.448,-4.032 -7.128,-4.032 z"
         id="path15"
         aria-label="o" />
      <path
         style="font-size:72px;font-family:Aalfons;fill:#000000"
         d="m -511.79746,504.00645 h 6.192 q 1.8,-7.848 3.6,-10.872 3.816,-6.696 11.376,-6.696 3.024,0 4.752,1.44 1.728,1.368 1.728,3.744 0,1.584 -0.864,2.448 -0.864,0.792 -2.304,0.792 -2.304,0 -2.664,-2.736 0,-0.216 -0.072,-0.936 -0.072,-0.792 -0.144,-1.08 -0.072,-0.288 -0.288,-0.72 -0.144,-0.504 -0.432,-0.648 -0.216,-0.216 -0.648,-0.216 -5.256,0 -7.344,10.368 l -0.936,5.112 h 6.84 l -0.504,2.952 h -6.696 l -4.464,24.336 q -4.392,22.32 -14.4,22.32 -3.168,0 -4.752,-1.512 -1.584,-1.512 -1.584,-3.6 0,-1.584 0.792,-2.592 0.792,-1.008 2.16,-1.008 1.44,0 2.16,1.008 0.72,1.008 0.72,2.16 0.072,1.224 0.432,2.232 0.432,1.008 1.296,1.008 0.864,0 1.584,-0.72 0.792,-0.72 1.44,-2.16 0.648,-1.44 1.08,-2.808 0.504,-1.296 0.936,-3.384 0.504,-2.088 0.72,-3.24 0.288,-1.152 0.648,-3.024 0.36,-1.944 0.36,-2.16 l 4.896,-26.856 h -5.976 z"
         id="path16"
         aria-label="𝑓" />
      <path
         style="font-size:72px;font-family:Aalfons;fill:#000000"
         d="m -425.99936,515.52645 v 14.832 q 0,3.168 0.936,4.248 0.936,1.008 4.392,1.008 v 2.016 h -16.632 v -2.016 q 3.6,0 4.464,-1.008 0.864,-1.008 0.864,-4.248 v -13.032 q 0,-5.832 -1.872,-7.92 -1.8,-2.088 -4.752,-2.088 -1.8,0 -3.672,0.864 -1.8,0.864 -2.592,1.512 -0.792,0.648 -2.448,2.16 v 18.504 q 0,3.24 0.864,4.248 0.936,1.008 4.608,1.008 v 2.016 h -16.488 v -2.016 q 3.456,0 4.248,-1.008 0.792,-1.008 0.792,-4.248 v -20.232 q 0,-1.872 -0.72,-2.52 -0.72,-0.648 -2.304,-0.648 l -1.944,0.144 v -2.088 l 9.144,-2.088 h 1.656 l -0.072,5.832 h 0.288 q 3.528,-3.096 5.976,-4.536 2.52,-1.512 5.616,-1.512 9.648,0 9.648,12.816 z m 9.64788,10.296 h 1.872 q 1.152,5.472 3.312,7.704 2.232,2.232 6.264,2.232 6.192,0 6.192,-4.752 0,-2.52 -1.512,-4.032 -1.512,-1.584 -6.552,-4.032 -5.184,-2.664 -7.344,-4.968 -2.16,-2.376 -2.16,-6.192 0,-4.32 3.096,-6.696 3.096,-2.376 7.92,-2.376 3.672,0 7.56,1.872 h 0.072 l 1.224,-1.512 h 1.44 l 0.216,11.016 h -1.944 q -1.152,-4.968 -3.168,-6.912 -2.016,-2.016 -5.472,-2.016 -2.592,0 -4.248,1.224 -1.584,1.224 -1.584,3.528 0,2.016 1.8,3.672 1.872,1.584 6.624,4.032 5.4,2.88 7.704,5.328 2.376,2.376 2.376,6.12 0,4.752 -3.384,7.056 -3.384,2.304 -8.712,2.304 -3.816,0 -8.208,-1.872 h -0.144 l -1.512,1.656 h -1.512 z"
         id="path14"
         aria-label="ns" />
    </g>
  </g>
</svg>
