<?xml version="1.0" encoding="UTF-8" standalone="no"?>
<!-- Generator: Adobe Illustrator 19.2.0, SVG Export Plug-In . SVG Version: 6.00 Build 0)  -->

<svg
   version="1.1"
   id="Ebene_1"
   x="0px"
   y="0px"
   viewBox="0 0 17929.21 1892.25"
   xml:space="preserve"
   width="17929.209"
   height="1892.25"
   xmlns="http://www.w3.org/2000/svg"
   xmlns:svg="http://www.w3.org/2000/svg"><defs
   id="defs2" />&#10;<style
   type="text/css"
   id="style1">&#10;	.st0{fill:#00A8A4;}&#10;	.st1{fill:#909090;}&#10;</style>&#10;<g
   id="g2">&#10;	<path
   class="st0"
   d="m 44.1,41.5 c 0,0 -0.1,0 0,0 -0.2,0 -0.6,-0.1 -0.7,-0.1 -0.1,0 -0.6,-0.1 -1,-0.1 -0.2,0 -0.3,-0.1 -0.4,-0.1 -0.3,-0.1 -0.9,-0.2 -1.2,-0.3 -0.2,-0.1 -0.7,-0.3 -0.8,-0.4 -0.1,-0.1 -0.4,-0.4 -0.5,-0.6 -0.2,-0.3 -0.4,-0.7 -0.4,-1 0,-0.2 0,-0.9 0,-0.9 v -1 -1.7 c 0,0 0,-0.1 0,-0.1 V 23.3 c 0,-3.5 -0.7,-6.1 -2.9,-8 C 34.8,14.1 32.8,13.5 30.9,13.5 30,13.7 29.1,14 28.3,14.3 26.2,9.4 24.5,4.6 22.8,0 L 20.8,0.6 7.3,34.7 C 5.1,40.5 4.2,40.9 0,41.5 v 1.8 h 14.2 v -1.8 c -5,-0.5 -5.5,-1.1 -4.1,-5.2 0.3,-1 0.6,-1.9 0.9,-2.9 0.1,-0.2 0.3,-0.4 0.6,-0.6 0.1,-0.1 0.4,-0.1 0.6,-0.1 h 4.2 2.6 c -0.4,0.8 -0.6,1.6 -0.6,2.6 0,0.1 0,0.2 0,0.3 0,1 0.2,2.1 0.6,3 1.1,2.8 3.8,4.9 7.2,4.9 0.3,0 0.7,-0.1 1.1,-0.2 1.9,-0.6 4.3,-2.4 6.5,-3.9 v 3.9 0 0 0 0 H 44 v 0 l 0.1,-1.8 z M 13,27.9 v 0 c 0.2,-0.5 0.8,-2.3 1,-2.8 v 0 C 16,19.8 18,14 20.1,8.5 h 0.1 l 2.8,8.2 c -0.9,0.5 -1.7,1 -2.2,1.4 -1.2,0.9 -2,1.7 -2,2.6 0,0.5 0.1,0.9 0.4,1.3 0.6,0.9 1.6,1.5 2.4,1.5 0.9,0 1.6,-0.5 1.9,-1.5 0.2,-0.8 0.4,-1.5 0.7,-2.1 0.4,-0.9 0.8,-1.7 1.2,-2.2 0.7,-0.8 1.7,-1.2 2.9,-1.2 0.1,0 0.3,0 0.4,0 3.1,0.2 5.1,2.8 5.1,7.3 v 1.1 c -0.4,0.3 -1,0.7 -1.7,1 0,0 -0.1,0 -0.1,0.1 -0.7,0.3 -2.7,1.1 -5.1,2 -1.6,0.6 -3.4,1.2 -5.1,1.6 -2.2,0.6 -5.2,0.6 -7.2,0.5 -1.1,-0.1 -2,-0.1 -2.3,-0.2 0.2,-0.7 0.4,-1.3 0.7,-2 z m 20.8,9.4 c -0.8,0.8 -1.9,1.5 -3.1,1.9 -0.7,0.3 -1.5,0.4 -2.1,0.4 -2,0 -4.6,-1.6 -4.6,-5 0,-2.3 1.3,-3.5 3.6,-4.7 0.1,-0.1 0.2,-0.1 0.4,-0.2 1.1,-0.5 3.2,-1.5 4.8,-2.2 0.4,-0.2 0.8,-0.4 1.1,-0.5 v 3.6 6.7 z"
   id="path1" />&#10;	&#10;<text
   xml:space="preserve"
   style="font-size:44.5401px;font-family:Aalfons;-inkscape-font-specification:'Aalfons, Normal';fill:#808080;stroke-width:2.08782"
   x="39.734142"
   y="35.665268"
   id="text2"><tspan
     id="tspan2"
     x="39.734142"
     y="35.665268"
     style="fill:#808080;stroke-width:2.08782">lfons</tspan></text></g>&#10;</svg>
