<?xml version="1.0" encoding="UTF-8" standalone="no"?>
<!-- Generator: Adobe Illustrator 19.2.0, SVG Export Plug-In . SVG Version: 6.00 Build 0)  -->

<svg
   version="1.1"
   id="Ebene_1"
   x="0px"
   y="0px"
   viewBox="0 0 133.9 43.5"
   style="enable-background:new 0 0 133.9 43.5;"
   xml:space="preserve"
   sodipodi:docname="AalfonsLogo.svg"
   inkscape:export-filename="../../../../../../Desktop/AalfonsLogo.svg"
   inkscape:export-xdpi="96"
   inkscape:export-ydpi="96"
   inkscape:version="1.3 (0e150ed, 2023-07-21)"
   xmlns:inkscape="http://www.inkscape.org/namespaces/inkscape"
   xmlns:sodipodi="http://sodipodi.sourceforge.net/DTD/sodipodi-0.dtd"
   xmlns="http://www.w3.org/2000/svg"
   xmlns:svg="http://www.w3.org/2000/svg"><defs
   id="defs2" /><sodipodi:namedview
   id="namedview2"
   pagecolor="#ffffff"
   bordercolor="#000000"
   borderopacity="0.25"
   inkscape:showpageshadow="2"
   inkscape:pageopacity="0.0"
   inkscape:pagecheckerboard="0"
   inkscape:deskcolor="#d1d1d1"
   inkscape:zoom="4.93652"
   inkscape:cx="66.949997"
   inkscape:cy="20.662329"
   inkscape:window-width="1696"
   inkscape:window-height="891"
   inkscape:window-x="0"
   inkscape:window-y="38"
   inkscape:window-maximized="0"
   inkscape:current-layer="g2" />&#10;<style
   type="text/css"
   id="style1">&#10;	.st0{fill:#00A8A4;}&#10;	.st1{fill:#909090;}&#10;</style>&#10;<g
   id="g2">&#10;	<path
   class="st0"
   d="M44.1,41.5C44.1,41.5,44,41.5,44.1,41.5c-0.2,0-0.6-0.1-0.7-0.1c-0.1,0-0.6-0.1-1-0.1c-0.2,0-0.3-0.1-0.4-0.1   c-0.3-0.1-0.9-0.2-1.2-0.3c-0.2-0.1-0.7-0.3-0.8-0.4c-0.1-0.1-0.4-0.4-0.5-0.6c-0.2-0.3-0.4-0.7-0.4-1c0-0.2,0-0.9,0-0.9l0-1v-1.7   c0,0,0-0.1,0-0.1V23.3c0-3.5-0.7-6.1-2.9-8c-1.4-1.2-3.4-1.8-5.3-1.8c-0.9,0.2-1.8,0.5-2.6,0.8C26.2,9.4,24.5,4.6,22.8,0l-2,0.6   L7.3,34.7c-2.2,5.8-3.1,6.2-7.3,6.8v1.8h14.2v-1.8c-5-0.5-5.5-1.1-4.1-5.2c0.3-1,0.6-1.9,0.9-2.9c0.1-0.2,0.3-0.4,0.6-0.6   c0.1-0.1,0.4-0.1,0.6-0.1h4.2h2.6c-0.4,0.8-0.6,1.6-0.6,2.6c0,0.1,0,0.2,0,0.3c0,1,0.2,2.1,0.6,3c1.1,2.8,3.8,4.9,7.2,4.9   c0.3,0,0.7-0.1,1.1-0.2c1.9-0.6,4.3-2.4,6.5-3.9v3.9h0v0h0v0l10.2,0v0L44.1,41.5L44.1,41.5L44.1,41.5z M13,27.9L13,27.9   c0.2-0.5,0.8-2.3,1-2.8h0c2-5.3,4-11.1,6.1-16.6h0.1l2.8,8.2c-0.9,0.5-1.7,1-2.2,1.4c-1.2,0.9-2,1.7-2,2.6c0,0.5,0.1,0.9,0.4,1.3   c0.6,0.9,1.6,1.5,2.4,1.5c0.9,0,1.6-0.5,1.9-1.5c0.2-0.8,0.4-1.5,0.7-2.1c0.4-0.9,0.8-1.7,1.2-2.2c0.7-0.8,1.7-1.2,2.9-1.2   c0.1,0,0.3,0,0.4,0c3.1,0.2,5.1,2.8,5.1,7.3v1.1c-0.4,0.3-1,0.7-1.7,1c0,0-0.1,0-0.1,0.1c-0.7,0.3-2.7,1.1-5.1,2   c-1.6,0.6-3.4,1.2-5.1,1.6c-2.2,0.6-5.2,0.6-7.2,0.5c-1.1-0.1-2-0.1-2.3-0.2C12.5,29.2,12.7,28.6,13,27.9L13,27.9z M33.8,37.3   c-0.8,0.8-1.9,1.5-3.1,1.9c-0.7,0.3-1.5,0.4-2.1,0.4c-2,0-4.6-1.6-4.6-5c0-2.3,1.3-3.5,3.6-4.7c0.1-0.1,0.2-0.1,0.4-0.2   c1.1-0.5,3.2-1.5,4.8-2.2c0.4-0.2,0.8-0.4,1.1-0.5v3.6V37.3L33.8,37.3z"
   id="path1" />&#10;	&#10;<text
   xml:space="preserve"
   style="font-size:44.5401px;font-family:Aalfons;-inkscape-font-specification:'Aalfons, Normal';fill:#808080;stroke-width:2.08782"
   x="39.734142"
   y="35.665268"
   id="text2"><tspan
     sodipodi:role="line"
     id="tspan2"
     x="39.734142"
     y="35.665268"
     style="stroke-width:2.08782;fill:#808080">lfons</tspan></text></g>&#10;</svg>
