<?xml version="1.0" encoding="UTF-8" standalone="no"?>
<!-- Generator: Adobe Illustrator 19.2.0, SVG Export Plug-In . SVG Version: 6.00 Build 0)  -->

<svg
   version="1.1"
   id="Ebene_1"
   x="0px"
   y="0px"
   viewBox="0 0 133.9 43.5"
   style="enable-background:new 0 0 133.9 43.5;"
   xml:space="preserve"
   sodipodi:docname="AalfonsLogo.svg"
   inkscape:export-filename="AalfonsLogo2.svg"
   inkscape:export-xdpi="96"
   inkscape:export-ydpi="96"
   inkscape:version="1.3 (0e150ed, 2023-07-21)"
   xmlns:inkscape="http://www.inkscape.org/namespaces/inkscape"
   xmlns:sodipodi="http://sodipodi.sourceforge.net/DTD/sodipodi-0.dtd"
   xmlns="http://www.w3.org/2000/svg"
   xmlns:svg="http://www.w3.org/2000/svg"><defs
   id="defs2" /><sodipodi:namedview
   id="namedview2"
   pagecolor="#ffffff"
   bordercolor="#000000"
   borderopacity="0.25"
   inkscape:showpageshadow="2"
   inkscape:pageopacity="0.0"
   inkscape:pagecheckerboard="0"
   inkscape:deskcolor="#d1d1d1"
   inkscape:zoom="4.93652"
   inkscape:cx="66.848711"
   inkscape:cy="20.662329"
   inkscape:window-width="1696"
   inkscape:window-height="891"
   inkscape:window-x="0"
   inkscape:window-y="38"
   inkscape:window-maximized="0"
   inkscape:current-layer="g2"
   inkscape:export-bgcolor="#ffffff10" />&#10;<style
   type="text/css"
   id="style1">&#10;	.st0{fill:#00A8A4;}&#10;	.st1{fill:#909090;}&#10;</style>&#10;<g
   id="g2">&#10;	<path
   class="st0"
   d="M44.1,41.5C44.1,41.5,44,41.5,44.1,41.5c-0.2,0-0.6-0.1-0.7-0.1c-0.1,0-0.6-0.1-1-0.1c-0.2,0-0.3-0.1-0.4-0.1   c-0.3-0.1-0.9-0.2-1.2-0.3c-0.2-0.1-0.7-0.3-0.8-0.4c-0.1-0.1-0.4-0.4-0.5-0.6c-0.2-0.3-0.4-0.7-0.4-1c0-0.2,0-0.9,0-0.9l0-1v-1.7   c0,0,0-0.1,0-0.1V23.3c0-3.5-0.7-6.1-2.9-8c-1.4-1.2-3.4-1.8-5.3-1.8c-0.9,0.2-1.8,0.5-2.6,0.8C26.2,9.4,24.5,4.6,22.8,0l-2,0.6   L7.3,34.7c-2.2,5.8-3.1,6.2-7.3,6.8v1.8h14.2v-1.8c-5-0.5-5.5-1.1-4.1-5.2c0.3-1,0.6-1.9,0.9-2.9c0.1-0.2,0.3-0.4,0.6-0.6   c0.1-0.1,0.4-0.1,0.6-0.1h4.2h2.6c-0.4,0.8-0.6,1.6-0.6,2.6c0,0.1,0,0.2,0,0.3c0,1,0.2,2.1,0.6,3c1.1,2.8,3.8,4.9,7.2,4.9   c0.3,0,0.7-0.1,1.1-0.2c1.9-0.6,4.3-2.4,6.5-3.9v3.9h0v0h0v0l10.2,0v0L44.1,41.5L44.1,41.5L44.1,41.5z M13,27.9L13,27.9   c0.2-0.5,0.8-2.3,1-2.8h0c2-5.3,4-11.1,6.1-16.6h0.1l2.8,8.2c-0.9,0.5-1.7,1-2.2,1.4c-1.2,0.9-2,1.7-2,2.6c0,0.5,0.1,0.9,0.4,1.3   c0.6,0.9,1.6,1.5,2.4,1.5c0.9,0,1.6-0.5,1.9-1.5c0.2-0.8,0.4-1.5,0.7-2.1c0.4-0.9,0.8-1.7,1.2-2.2c0.7-0.8,1.7-1.2,2.9-1.2   c0.1,0,0.3,0,0.4,0c3.1,0.2,5.1,2.8,5.1,7.3v1.1c-0.4,0.3-1,0.7-1.7,1c0,0-0.1,0-0.1,0.1c-0.7,0.3-2.7,1.1-5.1,2   c-1.6,0.6-3.4,1.2-5.1,1.6c-2.2,0.6-5.2,0.6-7.2,0.5c-1.1-0.1-2-0.1-2.3-0.2C12.5,29.2,12.7,28.6,13,27.9L13,27.9z M33.8,37.3   c-0.8,0.8-1.9,1.5-3.1,1.9c-0.7,0.3-1.5,0.4-2.1,0.4c-2,0-4.6-1.6-4.6-5c0-2.3,1.3-3.5,3.6-4.7c0.1-0.1,0.2-0.1,0.4-0.2   c1.1-0.5,3.2-1.5,4.8-2.2c0.4-0.2,0.8-0.4,1.1-0.5v3.6V37.3L33.8,37.3z"
   id="path1" />&#10;	&#10;<path
   d="m 51.314568,34.373605 v 1.291663 H 41.070345 v -1.291663 q 2.093385,0 2.583326,-0.579021 0.534481,-0.623562 0.534481,-2.627866 V 8.8075876 q 0,-1.2471228 -0.445401,-1.5589035 Q 43.29735,6.8923633 42.317468,6.8923633 l -1.425283,0.08908 V 5.7788608 l 5.879293,-1.5589035 h 1.113503 V 31.166718 q 0,2.048844 0.534481,2.627866 0.579021,0.579021 2.895106,0.579021 z m 2.182423,-19.775804 h 3.385047 q 0,-4.8994114 1.425284,-7.4381971 0.979882,-1.6479837 2.316085,-2.4497055 1.380743,-0.8017218 3.607748,-0.8017218 2.227005,0 3.607748,0.8462619 1.380743,0.8017218 1.380743,2.2715451 0,0.9353421 -0.534481,1.4252832 -0.489941,0.4899411 -1.291663,0.4899411 -1.113502,0 -2.360625,-1.6925238 -1.202583,-1.6925238 -2.316085,-1.6925238 -1.202583,0 -1.692524,1.1135025 -0.445401,1.1135025 -0.445401,3.9640692 v 3.964069 h 5.433892 v 1.870684 h -5.433892 v 13.896511 q 0,2.538786 0.846262,3.295967 0.890802,0.712642 3.696828,0.712642 v 1.291663 H 53.14067 v -1.291663 q 2.449706,0 3.073267,-0.668101 0.668101,-0.712642 0.668101,-3.340508 V 16.468485 H 53.496991 Z M 77.50407,14.063319 q 4.58763,0 7.215496,2.850567 2.672406,2.850566 2.672406,7.794517 0,5.478433 -2.716946,8.462619 -2.716946,2.939647 -7.170956,2.939647 -4.721251,0 -7.349117,-2.895107 -2.627866,-2.939646 -2.627866,-8.328998 0,-4.854871 2.716946,-7.839058 2.761487,-2.984187 7.260037,-2.984187 z m -0.178161,1.692524 q -2.627866,0 -4.142229,2.182465 -1.514363,2.182465 -1.514363,6.369234 0,10.110603 6.012913,10.021523 2.895107,0 4.23131,-2.093385 1.380743,-2.093384 1.380743,-7.304576 0,-4.23131 -1.558904,-6.681015 -1.514363,-2.494246 -4.40947,-2.494246 z m 33.004211,6.235614 v 9.175261 q 0,1.959764 0.57902,2.627866 0.57902,0.623561 2.71695,0.623561 v 1.247123 h -10.28877 v -1.247123 q 2.22701,0 2.76149,-0.623561 0.53448,-0.623562 0.53448,-2.627866 V 23.10496 q 0,-3.607748 -1.15804,-4.899411 -1.11351,-1.291663 -2.93965,-1.291663 -1.1135,0 -2.27154,0.534481 -1.113507,0.534481 -1.603448,0.935342 -0.489941,0.400861 -1.514363,1.336203 v 11.446806 q 0,2.004304 0.534481,2.627866 0.579021,0.623561 2.85057,0.623561 v 1.247123 H 90.331613 v -1.247123 q 2.137925,0 2.627866,-0.623561 0.489941,-0.623562 0.489941,-2.627866 V 18.65095 q 0,-1.158043 -0.445401,-1.558904 -0.445401,-0.400861 -1.425283,-0.400861 l -1.202583,0.08908 v -1.291663 l 5.656593,-1.291663 h 1.024422 l -0.04454,3.607748 h 0.178161 q 2.182465,-1.915224 3.696831,-2.806027 1.5589,-0.935342 3.47412,-0.935342 5.96838,0 5.96838,7.928138 z m 5.9683,6.369235 h 1.15804 q 0.71264,3.385047 2.04884,4.76579 1.38075,1.380743 3.87499,1.380743 3.83045,0 3.83045,-2.939646 0,-1.558904 -0.93534,-2.494246 -0.93534,-0.979882 -4.05315,-2.494245 -3.20689,-1.647984 -4.54309,-3.073267 -1.3362,-1.469824 -1.3362,-3.830449 0,-2.672406 1.91522,-4.142229 1.91522,-1.469824 4.89941,-1.469824 2.27155,0 4.67671,1.158043 h 0.0445 l 0.75718,-0.935342 h 0.89081 l 0.13362,6.814635 h -1.20259 q -0.71264,-3.073267 -1.95976,-4.275849 -1.24712,-1.247123 -3.38505,-1.247123 -1.60344,0 -2.62786,0.757182 -0.97989,0.757181 -0.97989,2.182464 0,1.247123 1.11351,2.271546 1.15804,0.979882 4.09768,2.494245 3.34051,1.781604 4.7658,3.295968 1.46982,1.469823 1.46982,3.785908 0,2.939647 -2.09339,4.36493 -2.09338,1.425283 -5.38935,1.425283 -2.36062,0 -5.07757,-1.158043 h -0.0891 l -0.93534,1.024423 h -0.93534 z"
   id="path4"
   style="font-size:44.5401px;font-family:Aalfons;-inkscape-font-specification:'Aalfons, Normal';fill:#808080;stroke-width:2.08782"
   aria-label="Aalfons" /></g>&#10;</svg>
