<?xml version="1.0" encoding="UTF-8" standalone="no"?>
<!-- Generator: Adobe Illustrator 19.2.0, SVG Export Plug-In . SVG Version: 6.00 Build 0)  -->

<svg
   version="1.1"
   id="Ebene_1"
   x="0px"
   y="0px"
   viewBox="0 0 131.445 43.663742"
   xml:space="preserve"
   sodipodi:docname="AalfonsLogo.svg"
   inkscape:export-filename="AalfonsLogo2.png"
   inkscape:export-xdpi="96"
   inkscape:export-ydpi="96"
   inkscape:version="1.3 (0e150ed, 2023-07-21)"
   width="82.936981mm"
   height="27.550222mm"
   xmlns:inkscape="http://www.inkscape.org/namespaces/inkscape"
   xmlns:sodipodi="http://sodipodi.sourceforge.net/DTD/sodipodi-0.dtd"
   xmlns="http://www.w3.org/2000/svg"
   xmlns:svg="http://www.w3.org/2000/svg"><defs
   id="defs2" /><sodipodi:namedview
   id="namedview2"
   pagecolor="#ffffff"
   bordercolor="#000000"
   borderopacity="0.25"
   inkscape:showpageshadow="2"
   inkscape:pageopacity="0.0"
   inkscape:pagecheckerboard="0"
   inkscape:deskcolor="#d1d1d1"
   inkscape:zoom="1"
   inkscape:cx="235"
   inkscape:cy="101"
   inkscape:window-width="1696"
   inkscape:window-height="891"
   inkscape:window-x="0"
   inkscape:window-y="38"
   inkscape:window-maximized="0"
   inkscape:current-layer="Ebene_1"
   inkscape:export-bgcolor="#ffffff10"
   showguides="true"
   inkscape:document-units="mm" />&#10;<style
   type="text/css"
   id="style1">&#10;	.st0{fill:#00A8A4;}&#10;	.st1{fill:#909090;}&#10;</style>&#10;<g
   id="g2"
   transform="scale(1.0037604)">&#10;	&#10;	&#10;<g
   id="g5"><g
     id="g4"><path
       class="st0"
       d="m 44.1,41.5 c 0,0 -0.1,0 0,0 -0.2,0 -0.6,-0.1 -0.7,-0.1 -0.1,0 -0.6,-0.1 -1,-0.1 -0.2,0 -0.3,-0.1 -0.4,-0.1 -0.3,-0.1 -0.9,-0.2 -1.2,-0.3 -0.2,-0.1 -0.7,-0.3 -0.8,-0.4 -0.1,-0.1 -0.4,-0.4 -0.5,-0.6 -0.2,-0.3 -0.4,-0.7 -0.4,-1 0,-0.2 0,-0.9 0,-0.9 v -1 -1.7 c 0,0 0,-0.1 0,-0.1 V 23.3 c 0,-3.5 -0.7,-6.1 -2.9,-8 C 34.8,14.1 32.8,13.5 30.9,13.5 30,13.7 29.1,14 28.3,14.3 26.2,9.4 24.5,4.6 22.8,0 L 20.8,0.6 7.3,34.7 C 5.1,40.5 4.2,40.9 0,41.5 v 1.8 h 14.2 v -1.8 c -5,-0.5 -5.5,-1.1 -4.1,-5.2 0.3,-1 0.6,-1.9 0.9,-2.9 0.1,-0.2 0.3,-0.4 0.6,-0.6 0.1,-0.1 0.4,-0.1 0.6,-0.1 h 4.2 2.6 c -0.4,0.8 -0.6,1.6 -0.6,2.6 0,0.1 0,0.2 0,0.3 0,1 0.2,2.1 0.6,3 1.1,2.8 3.8,4.9 7.2,4.9 0.3,0 0.7,-0.1 1.1,-0.2 1.9,-0.6 4.3,-2.4 6.5,-3.9 v 3.9 0 0 0 0 H 44 v 0 z M 13,27.9 v 0 c 0.2,-0.5 0.8,-2.3 1,-2.8 v 0 C 16,19.8 18,14 20.1,8.5 h 0.1 l 2.8,8.2 c -0.9,0.5 -1.7,1 -2.2,1.4 -1.2,0.9 -2,1.7 -2,2.6 0,0.5 0.1,0.9 0.4,1.3 0.6,0.9 1.6,1.5 2.4,1.5 0.9,0 1.6,-0.5 1.9,-1.5 0.2,-0.8 0.4,-1.5 0.7,-2.1 0.4,-0.9 0.8,-1.7 1.2,-2.2 0.7,-0.8 1.7,-1.2 2.9,-1.2 0.1,0 0.3,0 0.4,0 3.1,0.2 5.1,2.8 5.1,7.3 v 1.1 c -0.4,0.3 -1,0.7 -1.7,1 0,0 -0.1,0 -0.1,0.1 -0.7,0.3 -2.7,1.1 -5.1,2 -1.6,0.6 -3.4,1.2 -5.1,1.6 -2.2,0.6 -5.2,0.6 -7.2,0.5 -1.1,-0.1 -2,-0.1 -2.3,-0.2 0.2,-0.7 0.4,-1.3 0.7,-2 z m 20.8,9.4 c -0.8,0.8 -1.9,1.5 -3.1,1.9 -0.7,0.3 -1.5,0.4 -2.1,0.4 -2,0 -4.6,-1.6 -4.6,-5 0,-2.3 1.3,-3.5 3.6,-4.7 0.1,-0.1 0.2,-0.1 0.4,-0.2 1.1,-0.5 3.2,-1.5 4.8,-2.2 0.4,-0.2 0.8,-0.4 1.1,-0.5 v 3.6 6.7 z"
       id="path1" /><path
       d="m 51.314568,34.373605 v 1.291663 H 41.070345 v -1.291663 q 2.093385,0 2.583326,-0.579021 0.534481,-0.623562 0.534481,-2.627866 V 8.8075876 q 0,-1.2471228 -0.445401,-1.5589035 Q 43.29735,6.8923633 42.317468,6.8923633 l -1.425283,0.08908 V 5.7788608 l 5.879293,-1.5589035 h 1.113503 V 31.166718 q 0,2.048844 0.534481,2.627866 0.579021,0.579021 2.895106,0.579021 z m 2.182423,-19.775804 h 3.385047 q 0,-4.8994114 1.425284,-7.4381971 0.979882,-1.6479837 2.316085,-2.4497055 1.380743,-0.8017218 3.607748,-0.8017218 2.227005,0 3.607748,0.8462619 1.380743,0.8017218 1.380743,2.2715451 0,0.9353421 -0.534481,1.4252832 -0.489941,0.4899411 -1.291663,0.4899411 -1.113502,0 -2.360625,-1.6925238 -1.202583,-1.6925238 -2.316085,-1.6925238 -1.202583,0 -1.692524,1.1135025 -0.445401,1.1135025 -0.445401,3.9640692 v 3.964069 h 5.433892 v 1.870684 h -5.433892 v 13.896511 q 0,2.538786 0.846262,3.295967 0.890802,0.712642 3.696828,0.712642 v 1.291663 H 53.14067 v -1.291663 q 2.449706,0 3.073267,-0.668101 0.668101,-0.712642 0.668101,-3.340508 V 16.468485 H 53.496991 Z M 77.50407,14.063319 q 4.58763,0 7.215496,2.850567 2.672406,2.850566 2.672406,7.794517 0,5.478433 -2.716946,8.462619 -2.716946,2.939647 -7.170956,2.939647 -4.721251,0 -7.349117,-2.895107 -2.627866,-2.939646 -2.627866,-8.328998 0,-4.854871 2.716946,-7.839058 2.761487,-2.984187 7.260037,-2.984187 z m -0.178161,1.692524 q -2.627866,0 -4.142229,2.182465 -1.514363,2.182465 -1.514363,6.369234 0,10.110603 6.012913,10.021523 2.895107,0 4.23131,-2.093385 1.380743,-2.093384 1.380743,-7.304576 0,-4.23131 -1.558904,-6.681015 -1.514363,-2.494246 -4.40947,-2.494246 z m 33.004211,6.235614 v 9.175261 q 0,1.959764 0.57902,2.627866 0.57902,0.623561 2.71695,0.623561 v 1.247123 h -10.28877 v -1.247123 q 2.22701,0 2.76149,-0.623561 0.53448,-0.623562 0.53448,-2.627866 V 23.10496 q 0,-3.607748 -1.15804,-4.899411 -1.11351,-1.291663 -2.93965,-1.291663 -1.1135,0 -2.27154,0.534481 -1.113507,0.534481 -1.603448,0.935342 -0.489941,0.400861 -1.514363,1.336203 v 11.446806 q 0,2.004304 0.534481,2.627866 0.579021,0.623561 2.85057,0.623561 v 1.247123 H 90.331613 v -1.247123 q 2.137925,0 2.627866,-0.623561 0.489941,-0.623562 0.489941,-2.627866 V 18.65095 q 0,-1.158043 -0.445401,-1.558904 -0.445401,-0.400861 -1.425283,-0.400861 l -1.202583,0.08908 v -1.291663 l 5.656593,-1.291663 h 1.024422 l -0.04454,3.607748 h 0.178161 q 2.182465,-1.915224 3.696831,-2.806027 1.5589,-0.935342 3.47412,-0.935342 5.96838,0 5.96838,7.928139 z m 5.9683,6.369235 h 1.15804 q 0.71264,3.385047 2.04884,4.76579 1.38075,1.380743 3.87499,1.380743 3.83045,0 3.83045,-2.939646 0,-1.558904 -0.93534,-2.494246 -0.93534,-0.979882 -4.05315,-2.494245 -3.20689,-1.647984 -4.54309,-3.073267 -1.3362,-1.469824 -1.3362,-3.830449 0,-2.672406 1.91522,-4.142229 1.91522,-1.469824 4.89941,-1.469824 2.27155,0 4.67671,1.158043 h 0.0445 l 0.75718,-0.935342 h 0.89081 l 0.13362,6.814635 h -1.20259 q -0.71264,-3.073267 -1.95976,-4.275849 -1.24712,-1.247123 -3.38505,-1.247123 -1.60344,0 -2.62786,0.757182 -0.97989,0.757181 -0.97989,2.182464 0,1.247123 1.11351,2.271546 1.15804,0.979882 4.09768,2.494245 3.34051,1.781604 4.7658,3.295968 1.46982,1.469823 1.46982,3.785908 0,2.939647 -2.09339,4.36493 -2.09338,1.425283 -5.38935,1.425283 -2.36062,0 -5.07757,-1.158043 h -0.0891 l -0.93534,1.024423 h -0.93534 z"
       id="path4"
       style="font-size:44.5401px;font-family:Aalfons;-inkscape-font-specification:'Aalfons, Normal';fill:#808080;stroke-width:2.08782"
       aria-label="lfons" /></g></g></g>&#10;</svg>
